<svg width="339" height="339" viewBox="0 0 339 339" fill="none" xmlns="http://www.w3.org/2000/svg">
<path d="M278.86 122.17C286.888 122.17 293.372 123.008 298.312 124.685C303.34 126.272 307.001 129.051 309.295 133.021C311.677 136.903 312.868 142.328 312.868 149.297C312.868 153.532 312.294 157.281 311.148 160.545C310.089 163.721 308.28 166.279 305.722 168.22C303.164 170.161 299.679 171.396 295.268 171.925V172.587C296.856 172.852 298.488 173.469 300.164 174.44C301.929 175.41 303.561 176.866 305.061 178.806C306.56 180.659 307.663 183.173 308.369 186.349L316.308 214.799H295.004L287.99 187.011C287.196 184.011 286.005 181.938 284.417 180.791C282.918 179.644 280.801 179.071 278.066 179.071C272.067 179.071 266.994 179.071 262.848 179.071C258.79 178.983 255.35 178.895 252.527 178.806C249.792 178.718 247.322 178.63 245.116 178.542L245.513 163.853H278.463C281.991 163.853 284.77 163.501 286.799 162.795C288.917 162.001 290.372 160.633 291.166 158.693C292.048 156.752 292.489 154.061 292.489 150.621C292.489 147.092 292.048 144.401 291.166 142.549C290.372 140.608 288.917 139.285 286.799 138.579C284.77 137.785 281.991 137.388 278.463 137.388C270.17 137.388 263.157 137.432 257.423 137.52C251.689 137.609 247.763 137.741 245.646 137.917L243.661 123.494C247.366 123.053 250.85 122.744 254.115 122.567C257.379 122.391 260.951 122.303 264.833 122.303C268.715 122.214 273.39 122.17 278.86 122.17ZM263.642 123.494V214.799H243.661V123.494H263.642Z" fill="white"/>
<path d="M233.518 123.494L208.641 209.242C208.199 210.83 207.317 212.153 205.994 213.212C204.759 214.27 203.259 214.799 201.495 214.799H182.969C181.116 214.799 179.529 214.27 178.205 213.212C176.97 212.153 176.176 210.83 175.823 209.242L150.813 123.494H171.721L188.394 189.393C188.747 191.069 189.1 192.789 189.453 194.553C189.894 196.23 190.247 197.906 190.512 199.582H193.952C194.217 197.906 194.526 196.185 194.878 194.421C195.32 192.657 195.761 190.936 196.202 189.26L212.743 123.494H233.518Z" fill="white"/>
<path d="M84.0713 119C96.9755 119 105.875 121.67 110.77 127.01C116.109 131.904 118.779 140.804 118.779 153.708V185.746C118.779 198.65 116.109 207.772 110.77 213.112C105.875 218.006 96.9755 220.454 84.0713 220.454H58.7079C45.8037 220.454 36.6817 218.006 31.342 213.112C26.4473 207.772 24 198.65 24 185.746V153.708C24 140.804 26.4473 131.904 31.342 127.01C36.6817 121.67 45.8037 119 58.7079 119H84.0713Z" fill="white"/>
</svg>
